<?xml version="1.0" standalone="no"?>
<!DOCTYPE svg PUBLIC "-//W3C//DTD SVG 20010904//EN"
 "http://www.w3.org/TR/2001/REC-SVG-20010904/DTD/svg10.dtd">
<svg version="1.0" xmlns="http://www.w3.org/2000/svg"
 width="432.000000pt" height="432.000000pt" viewBox="0 0 432.000000 432.000000"
 preserveAspectRatio="xMidYMid meet">
<metadata>
Created by potrace 1.11, written by Peter Selinger 2001-2013
</metadata>
<g transform="translate(0.000000,432.000000) scale(0.100000,-0.100000)"
fill="#000000" stroke="none">
<path d="M2129 4272 c-15 -7 -126 -86 -352 -252 -57 -41 -114 -83 -127 -92
-14 -9 -81 -57 -150 -108 -69 -50 -161 -116 -205 -147 -44 -31 -82 -59 -85
-62 -3 -4 -84 -62 -180 -131 -96 -69 -182 -130 -190 -137 -8 -7 -46 -35 -85
-62 -79 -56 -187 -135 -383 -277 -74 -53 -138 -107 -144 -120 -8 -18 -7 -41 7
-96 10 -40 18 -77 19 -83 1 -5 5 -19 9 -30 3 -11 8 -31 11 -45 3 -14 12 -54
21 -90 9 -36 18 -73 20 -83 2 -10 7 -27 10 -37 3 -10 8 -27 10 -37 2 -10 25
-101 50 -203 26 -102 49 -193 51 -202 7 -31 12 -51 34 -133 11 -44 22 -89 25
-100 12 -60 168 -674 177 -698 11 -27 21 -33 198 -115 507 -234 743 -343 829
-383 57 -27 105 -49 106 -49 2 0 72 -32 157 -71 161 -75 248 -115 338 -157 30
-13 151 -69 268 -123 118 -55 227 -99 243 -99 23 0 57 25 161 117 73 65 142
127 154 138 11 11 51 47 89 80 37 33 75 67 84 76 9 9 81 74 161 144 80 71 152
136 161 144 14 15 133 121 183 164 54 47 186 167 233 212 l52 50 -1 948 c0
864 -2 949 -17 967 -15 18 -71 55 -421 273 -287 179 -1196 748 -1210 757 -117
78 -258 160 -274 159 -12 0 -28 -3 -37 -7z"/>
<path d="M2638 3 c61 -2 163 -2 225 0 61 1 11 3 -113 3 -124 0 -174 -2 -112
-3z"/>
</g>
</svg>
