<svg version="1.1" id="Layer_1" xmlns="http://www.w3.org/2000/svg" x="0" y="0" viewBox="0 0 148.34 80.43" xml:space="preserve"><style type="text/css">.st0{fill:url(#SVGID_1_)}.st1{fill:url(#SVGID_2_)}.st2{fill:url(#SVGID_3_)}.st3{fill:url(#SVGID_4_)}.st4{fill:none;stroke:#000;stroke-width:2;stroke-linecap:round;stroke-miterlimit:1}</style><path d="M58.31 10.57c.91-.38 2.12-.77 3.62-1.17s3.05-.59 4.66-.59c.24 0 .62.07 1.15.22v2.3c-.58-.07-1.15-.11-1.73-.11-.79 0-1.52.05-2.2.14-.67.1-1.64.25-2.92.47v15.26H58.3V10.57zM71.79 25.19c-1.38-1.63-2.07-3.97-2.07-7.02 0-3.1.7-5.43 2.11-7 1.4-1.57 3.44-2.36 6.1-2.36 2.81 0 4.9.83 6.26 2.5 1.37 1.67 2.05 3.95 2.05 6.86 0 2.98-.72 5.3-2.16 6.97-1.44 1.67-3.47 2.5-6.08 2.5-2.76-.01-4.83-.82-6.21-2.45zm11.86-7.02c0-2.26-.44-3.98-1.33-5.18-.89-1.2-2.34-1.8-4.36-1.8-3.77 0-5.65 2.33-5.65 6.98 0 4.73 1.88 7.09 5.65 7.09 3.79 0 5.69-2.37 5.69-7.09zM92.63 25.35c-1.62-1.36-2.43-3.77-2.43-7.25 0-3.46.81-5.87 2.43-7.24s3.62-2.05 5.99-2.05c1.8 0 3.58.34 5.33 1.01v2.48c-1.63-.67-3.31-1.01-5.04-1.01-2.14 0-3.69.54-4.66 1.62-.97 1.08-1.46 2.81-1.46 5.18 0 2.4.49 4.13 1.46 5.2.97 1.07 2.53 1.6 4.66 1.6 1.8 0 3.48-.34 5.04-1.01v2.52c-1.68.65-3.46.97-5.33.97-2.37.01-4.37-.67-5.99-2.02zM119.79 27.09l-8.39-8.5v8.5h-2.59V2.29h2.59v13.5l7.31-6.66h3.24l-8.82 7.78 10.12 10.19h-3.46zM71.55 36.13c1.58 1.55 2.38 4.03 2.38 7.43 0 2.81-.74 5.02-2.23 6.62-1.49 1.61-3.6 2.41-6.34 2.41-.62 0-1.34-.1-2.16-.29-.82-.19-1.58-.44-2.3-.76v8.35h-2.59V37.37c0-1.32.72-2.24 2.18-2.75 1.45-.52 3.15-.79 5.09-.81 2.4 0 4.39.77 5.97 2.32zM69.7 48.42c1-1.2 1.49-2.82 1.49-4.86 0-2.26-.41-4.05-1.22-5.38-.82-1.33-2.29-2-4.43-2-1.3 0-2.39.15-3.29.45-.9.3-1.35.7-1.35 1.21v11.12c1.44.84 2.93 1.26 4.46 1.26 1.9 0 3.34-.6 4.34-1.8zM91.23 35.28c1.16.98 1.75 2.41 1.75 4.28v8.71c0 1.73-.71 2.89-2.12 3.47s-3.37.88-5.87.88c-1.9 0-3.52-.42-4.88-1.26s-2.03-2.24-2.03-4.21c0-2.14.59-3.69 1.76-4.66 1.18-.97 2.79-1.46 4.86-1.46 2.33 0 4.21.42 5.65 1.26v-2.12c0-2.69-1.57-4.03-4.72-4.03-1.03 0-2.08.14-3.13.43-1.06.29-1.94.72-2.66 1.3v-2.59c.72-.46 1.7-.82 2.93-1.08 1.24-.26 2.47-.4 3.69-.4 2.01.01 3.6.5 4.77 1.48zm-2 14.67c.74-.25 1.12-.76 1.12-1.53v-4.03c-.65-.31-1.4-.56-2.27-.74-.86-.18-1.76-.27-2.7-.27-1.51 0-2.68.29-3.49.86-.82.58-1.22 1.42-1.22 2.52 0 1.25.48 2.15 1.44 2.72.96.56 2.12.85 3.49.85 1.67 0 2.88-.13 3.63-.38zM111.98 36.13c1.58 1.55 2.38 4.03 2.38 7.43 0 2.81-.74 5.02-2.23 6.62-1.49 1.61-3.6 2.41-6.34 2.41-.63 0-1.34-.1-2.16-.29s-1.58-.44-2.3-.76v8.35h-2.59V37.37c0-1.32.73-2.24 2.18-2.75 1.45-.52 3.15-.79 5.09-.81 2.39 0 4.39.77 5.97 2.32zm-1.85 12.29c1-1.2 1.49-2.82 1.49-4.86 0-2.26-.41-4.05-1.22-5.38-.82-1.33-2.29-2-4.43-2-1.3 0-2.39.15-3.29.45-.9.3-1.35.7-1.35 1.21v11.12c1.44.84 2.93 1.26 4.46 1.26 1.89 0 3.34-.6 4.34-1.8zM132.21 36.47c1.27 1.78 1.88 4.14 1.84 7.09h-13.1c0 2.16.5 3.82 1.51 4.97s2.45 1.73 4.32 1.73c2.4 0 4.45-.52 6.16-1.55v2.66c-1.75.84-3.85 1.26-6.3 1.26-2.62 0-4.66-.81-6.12-2.43s-2.2-3.99-2.2-7.11c0-3.05.69-5.36 2.07-6.93 1.38-1.57 3.32-2.36 5.81-2.36 2.74.01 4.74.89 6.01 2.67zm-9.61.81c-.82.73-1.33 2.03-1.55 3.91h10.26c-.12-1.68-.59-2.93-1.42-3.76-.83-.83-2.06-1.24-3.69-1.24-1.58-.01-2.78.36-3.6 1.09zM138.91 35.57c.91-.38 2.12-.77 3.62-1.17s3.05-.59 4.66-.59c.24 0 .62.07 1.15.22v2.3c-.58-.07-1.15-.11-1.73-.11-.79 0-1.52.05-2.2.14-.67.1-1.64.25-2.92.47v15.26h-2.59V35.57zM25.96 80.07c-.86-.24-1.81-.62-2.84-1.15v-2.74c1.22.7 2.23 1.18 3.01 1.46.78.28 1.71.41 2.79.41 1.2 0 2.18-.26 2.93-.79.76-.53 1.13-1.21 1.13-2.05 0-.74-.23-1.3-.68-1.67-.46-.37-1.18-.75-2.16-1.13l-.94-.4c-1.37-.38-2.43-.73-3.19-1.04s-1.42-.8-1.98-1.48c-.56-.67-.85-1.58-.85-2.74 0-1.15.3-2.11.9-2.88.6-.77 1.38-1.34 2.34-1.71.96-.37 1.97-.56 3.02-.56.96 0 1.77.11 2.43.32.66.22 1.57.58 2.72 1.08v2.59c-1.2-.6-2.12-1.02-2.75-1.26-.64-.24-1.39-.36-2.25-.36-1.06 0-1.96.21-2.7.63-.74.42-1.12 1.01-1.12 1.78 0 .62.19 1.13.56 1.53.37.4.84.71 1.4.94.56.23 1.33.47 2.29.74 1.2.38 2.15.73 2.86 1.04.71.31 1.33.81 1.87 1.49.54.68.81 1.6.81 2.75 0 1.22-.31 2.25-.94 3.08a5.54 5.54 0 0 1-2.43 1.85c-1 .41-2.03.61-3.11.61-1.21.02-2.25-.1-3.12-.34zM41.97 78.15c-1.62-1.36-2.43-3.77-2.43-7.25 0-3.46.81-5.87 2.43-7.24s3.62-2.05 5.99-2.05c1.8 0 3.58.34 5.33 1.01v2.48c-1.63-.67-3.31-1.01-5.04-1.01-2.14 0-3.69.54-4.66 1.62-.97 1.08-1.46 2.81-1.46 5.18 0 2.4.49 4.13 1.46 5.2.97 1.07 2.53 1.6 4.66 1.6 1.8 0 3.48-.34 5.04-1.01v2.52c-1.68.65-3.46.97-5.33.97-2.38.01-4.38-.67-5.99-2.02zM58.29 61.93h2.59v17.96h-2.59V61.93zM68.73 80.07c-.87-.24-1.81-.62-2.84-1.15v-2.74c1.22.7 2.23 1.18 3.01 1.46.78.28 1.71.41 2.79.41 1.2 0 2.18-.26 2.93-.79.76-.53 1.13-1.21 1.13-2.05 0-.74-.23-1.3-.68-1.67-.46-.37-1.18-.75-2.16-1.13l-.94-.4c-1.37-.38-2.43-.73-3.19-1.04s-1.42-.8-1.98-1.48c-.56-.67-.85-1.58-.85-2.74 0-1.15.3-2.11.9-2.88.6-.77 1.38-1.34 2.34-1.71.96-.37 1.97-.56 3.02-.56.96 0 1.77.11 2.43.32.66.22 1.57.58 2.72 1.08v2.59c-1.2-.6-2.12-1.02-2.75-1.26-.64-.24-1.38-.36-2.25-.36-1.06 0-1.96.21-2.7.63-.74.42-1.12 1.01-1.12 1.78 0 .62.19 1.13.56 1.53.37.4.84.71 1.4.94.56.23 1.33.47 2.29.74 1.2.38 2.15.73 2.86 1.04.71.31 1.33.81 1.87 1.49.54.68.81 1.6.81 2.75 0 1.22-.31 2.25-.94 3.08-.63.83-1.44 1.45-2.43 1.85-1 .41-2.03.61-3.11.61-1.21.02-2.26-.1-3.12-.34zM85.15 80.07c-.86-.24-1.81-.62-2.84-1.15v-2.74c1.22.7 2.23 1.18 3.01 1.46.78.28 1.71.41 2.79.41 1.2 0 2.18-.26 2.93-.79.76-.53 1.13-1.21 1.13-2.05 0-.74-.23-1.3-.68-1.67s-1.18-.75-2.16-1.13l-.94-.4c-1.37-.38-2.43-.73-3.19-1.04s-1.42-.8-1.98-1.48c-.56-.67-.85-1.58-.85-2.74 0-1.15.3-2.11.9-2.88.6-.77 1.38-1.34 2.34-1.71.96-.37 1.97-.56 3.02-.56.96 0 1.77.11 2.43.32.66.22 1.57.58 2.72 1.08v2.59c-1.2-.6-2.12-1.02-2.75-1.26-.64-.24-1.39-.36-2.25-.36-1.06 0-1.96.21-2.7.63-.74.42-1.12 1.01-1.12 1.78 0 .62.19 1.13.56 1.53.37.4.84.71 1.4.94.56.23 1.33.47 2.29.74 1.2.38 2.15.73 2.86 1.04.71.31 1.33.81 1.87 1.49.54.68.81 1.6.81 2.75 0 1.22-.31 2.25-.94 3.08s-1.43 1.45-2.43 1.85c-1 .41-2.03.61-3.11.61-1.22.02-2.26-.1-3.12-.34zM100.79 77.99c-1.38-1.63-2.07-3.97-2.07-7.02 0-3.1.7-5.43 2.11-7s3.44-2.36 6.1-2.36c2.81 0 4.9.83 6.26 2.5 1.37 1.67 2.05 3.95 2.05 6.86 0 2.98-.72 5.3-2.16 6.97-1.44 1.67-3.47 2.5-6.08 2.5-2.76-.01-4.83-.82-6.21-2.45zm11.86-7.02c0-2.26-.44-3.98-1.33-5.18-.89-1.2-2.34-1.8-4.36-1.8-3.77 0-5.65 2.33-5.65 6.98 0 4.73 1.88 7.09 5.65 7.09 3.79 0 5.69-2.37 5.69-7.09zM120.1 63.37c.91-.38 2.12-.77 3.62-1.17 1.5-.4 3.05-.59 4.66-.59.24 0 .62.07 1.15.22v2.3c-.58-.07-1.15-.11-1.73-.11-.79 0-1.52.05-2.2.14-.67.1-1.64.25-2.92.47v15.26h-2.59V63.37zM135.62 80.07c-.86-.24-1.81-.62-2.84-1.15v-2.74c1.22.7 2.23 1.18 3.01 1.46.78.28 1.71.41 2.79.41 1.2 0 2.18-.26 2.93-.79.76-.53 1.13-1.21 1.13-2.05 0-.74-.23-1.3-.68-1.67-.46-.37-1.18-.75-2.16-1.13l-.94-.4c-1.37-.38-2.43-.73-3.19-1.04s-1.42-.8-1.98-1.48c-.56-.67-.85-1.58-.85-2.74 0-1.15.3-2.11.9-2.88.6-.77 1.38-1.34 2.34-1.71.96-.37 1.97-.56 3.02-.56.96 0 1.77.11 2.43.32s1.57.58 2.72 1.08v2.59c-1.2-.6-2.12-1.02-2.75-1.26s-1.39-.36-2.25-.36c-1.06 0-1.96.21-2.7.63-.74.42-1.12 1.01-1.12 1.78 0 .62.19 1.13.56 1.53.37.4.84.71 1.4.94.56.23 1.33.47 2.29.74 1.2.38 2.15.73 2.86 1.04.71.31 1.33.81 1.87 1.49.54.68.81 1.6.81 2.75 0 1.22-.31 2.25-.94 3.08s-1.43 1.45-2.43 1.85c-1 .41-2.03.61-3.11.61-1.21.02-2.26-.1-3.12-.34z"/><g id="XMLID_2_"><linearGradient id="SVGID_1_" gradientUnits="userSpaceOnUse" x1="19.44" y1="22.965" x2="47.35" y2="22.965"><stop offset=".006" stop-color="#98d0c5"/><stop offset=".5" stop-color="#00ada4"/><stop offset="1" stop-color="#00947b"/></linearGradient><path class="st0" d="M47.35 15.46v22.98L19.44 20.21 34.63 7.49z"/><linearGradient id="SVGID_2_" gradientUnits="userSpaceOnUse" x1="17.72" y1="36.06" x2="47.35" y2="36.06"><stop offset="0" stop-color="#ba81b7"/><stop offset=".5" stop-color="#92338a"/><stop offset="1" stop-color="#772182"/></linearGradient><path class="st1" d="M47.35 38.44L32.33 51.91l-14.61-6.74 1.72-24.96z"/><linearGradient id="SVGID_3_" gradientUnits="userSpaceOnUse" x1="1" y1="10.605" x2="34.63" y2="10.605"><stop offset="0" stop-color="#f3944c"/><stop offset=".5" stop-color="#ed6d05"/><stop offset="1" stop-color="#d25917"/></linearGradient><path class="st2" d="M24.28 1l10.35 6.49-15.19 12.72L1 17.84z"/><linearGradient id="SVGID_4_" gradientUnits="userSpaceOnUse" x1="1" y1="31.505" x2="19.44" y2="31.505"><stop offset=".011" stop-color="#44afcd"/><stop offset=".5" stop-color="#008eb4"/><stop offset=".994" stop-color="#00747d"/></linearGradient><path class="st3" d="M19.44 20.21l-1.72 24.96-11.17-5.15L1 17.84z"/><g><path class="st4" d="M24.28 1L1 17.84M1 17.84l5.55 22.18M6.55 40.02l11.17 5.15 14.61 6.74M32.33 51.91l15.02-13.47M47.35 38.44V15.46M47.35 15.46L34.63 7.49 24.28 1M1 17.84l18.44 2.37M19.44 20.21L34.63 7.49M19.44 20.21l27.91 18.23M17.72 45.17l1.72-24.96"/></g></g></svg>