<?xml version="1.0" encoding="utf-8"?>
<!-- Generator: Adobe Illustrator 23.0.2, SVG Export Plug-In . SVG Version: 6.00 Build 0)  -->
<svg version="1.1" id="Layer_1" xmlns="http://www.w3.org/2000/svg" xmlns:xlink="http://www.w3.org/1999/xlink" x="0px" y="0px"
	 viewBox="0 0 148.34 80.43" style="enable-background:new 0 0 148.34 80.43;" xml:space="preserve">
<style type="text/css">
	.st0{fill:url(#SVGID_1_);}
	.st1{fill:url(#SVGID_2_);}
	.st2{fill:url(#SVGID_3_);}
	.st3{fill:url(#SVGID_4_);}
	.st4{fill:none;stroke:#000000;stroke-width:2;stroke-linecap:round;stroke-miterlimit:1;}
</style>
<path d="M58.31,10.57c0.91-0.38,2.12-0.77,3.62-1.17s3.05-0.59,4.66-0.59c0.24,0,0.62,0.07,1.15,0.22v2.3
	c-0.58-0.07-1.15-0.11-1.73-0.11c-0.79,0-1.52,0.05-2.2,0.14c-0.67,0.1-1.64,0.25-2.92,0.47v15.26h-2.59V10.57z"/>
<path d="M71.79,25.19c-1.38-1.63-2.07-3.97-2.07-7.02c0-3.1,0.7-5.43,2.11-7c1.4-1.57,3.44-2.36,6.1-2.36c2.81,0,4.9,0.83,6.26,2.5
	c1.37,1.67,2.05,3.95,2.05,6.86c0,2.98-0.72,5.3-2.16,6.97c-1.44,1.67-3.47,2.5-6.08,2.5C75.24,27.63,73.17,26.82,71.79,25.19z
	 M83.65,18.17c0-2.26-0.44-3.98-1.33-5.18c-0.89-1.2-2.34-1.8-4.36-1.8c-3.77,0-5.65,2.33-5.65,6.98c0,4.73,1.88,7.09,5.65,7.09
	C81.75,25.26,83.65,22.89,83.65,18.17z"/>
<path d="M92.63,25.35c-1.62-1.36-2.43-3.77-2.43-7.25c0-3.46,0.81-5.87,2.43-7.24c1.62-1.37,3.62-2.05,5.99-2.05
	c1.8,0,3.58,0.34,5.33,1.01v2.48c-1.63-0.67-3.31-1.01-5.04-1.01c-2.14,0-3.69,0.54-4.66,1.62c-0.97,1.08-1.46,2.81-1.46,5.18
	c0,2.4,0.49,4.13,1.46,5.2c0.97,1.07,2.53,1.6,4.66,1.6c1.8,0,3.48-0.34,5.04-1.01v2.52c-1.68,0.65-3.46,0.97-5.33,0.97
	C96.25,27.38,94.25,26.7,92.63,25.35z"/>
<path d="M119.79,27.09l-8.39-8.5v8.5h-2.59V2.29h2.59v13.5l7.31-6.66h3.24l-8.82,7.78l10.12,10.19H119.79z"/>
<path d="M71.55,36.13c1.58,1.55,2.38,4.03,2.38,7.43c0,2.81-0.74,5.02-2.23,6.62c-1.49,1.61-3.6,2.41-6.34,2.41
	c-0.62,0-1.34-0.1-2.16-0.29c-0.82-0.19-1.58-0.44-2.3-0.76v8.35h-2.59V37.37c0-1.32,0.72-2.24,2.18-2.75
	c1.45-0.52,3.15-0.79,5.09-0.81C67.98,33.81,69.97,34.58,71.55,36.13z M69.7,48.42c1-1.2,1.49-2.82,1.49-4.86
	c0-2.26-0.41-4.05-1.22-5.38c-0.82-1.33-2.29-2-4.43-2c-1.3,0-2.39,0.15-3.29,0.45c-0.9,0.3-1.35,0.7-1.35,1.21v11.12
	c1.44,0.84,2.93,1.26,4.46,1.26C67.26,50.22,68.7,49.62,69.7,48.42z"/>
<path d="M91.23,35.28c1.16,0.98,1.75,2.41,1.75,4.28v8.71c0,1.73-0.71,2.89-2.12,3.47s-3.37,0.88-5.87,0.88
	c-1.9,0-3.52-0.42-4.88-1.26s-2.03-2.24-2.03-4.21c0-2.14,0.59-3.69,1.76-4.66c1.18-0.97,2.79-1.46,4.86-1.46
	c2.33,0,4.21,0.42,5.65,1.26v-2.12c0-2.69-1.57-4.03-4.72-4.03c-1.03,0-2.08,0.14-3.13,0.43c-1.06,0.29-1.94,0.72-2.66,1.3v-2.59
	c0.72-0.46,1.7-0.82,2.93-1.08c1.24-0.26,2.47-0.4,3.69-0.4C88.47,33.81,90.06,34.3,91.23,35.28z M89.23,49.95
	c0.74-0.25,1.12-0.76,1.12-1.53v-4.03c-0.65-0.31-1.4-0.56-2.27-0.74c-0.86-0.18-1.76-0.27-2.7-0.27c-1.51,0-2.68,0.29-3.49,0.86
	c-0.82,0.58-1.22,1.42-1.22,2.52c0,1.25,0.48,2.15,1.44,2.72c0.96,0.56,2.12,0.85,3.49,0.85C87.27,50.33,88.48,50.2,89.23,49.95z"/>
<path d="M111.98,36.13c1.58,1.55,2.38,4.03,2.38,7.43c0,2.81-0.74,5.02-2.23,6.62c-1.49,1.61-3.6,2.41-6.34,2.41
	c-0.63,0-1.34-0.1-2.16-0.29s-1.58-0.44-2.3-0.76v8.35h-2.59V37.37c0-1.32,0.73-2.24,2.18-2.75c1.45-0.52,3.15-0.79,5.09-0.81
	C108.4,33.81,110.4,34.58,111.98,36.13z M110.13,48.42c1-1.2,1.49-2.82,1.49-4.86c0-2.26-0.41-4.05-1.22-5.38
	c-0.82-1.33-2.29-2-4.43-2c-1.3,0-2.39,0.15-3.29,0.45c-0.9,0.3-1.35,0.7-1.35,1.21v11.12c1.44,0.84,2.93,1.26,4.46,1.26
	C107.68,50.22,109.13,49.62,110.13,48.42z"/>
<path d="M132.21,36.47c1.27,1.78,1.88,4.14,1.84,7.09h-13.1c0,2.16,0.5,3.82,1.51,4.97c1.01,1.15,2.45,1.73,4.32,1.73
	c2.4,0,4.45-0.52,6.16-1.55v2.66c-1.75,0.84-3.85,1.26-6.3,1.26c-2.62,0-4.66-0.81-6.12-2.43c-1.46-1.62-2.2-3.99-2.2-7.11
	c0-3.05,0.69-5.36,2.07-6.93c1.38-1.57,3.32-2.36,5.81-2.36C128.94,33.81,130.94,34.69,132.21,36.47z M122.6,37.28
	c-0.82,0.73-1.33,2.03-1.55,3.91h10.26c-0.12-1.68-0.59-2.93-1.42-3.76c-0.83-0.83-2.06-1.24-3.69-1.24
	C124.62,36.18,123.42,36.55,122.6,37.28z"/>
<path d="M138.91,35.57c0.91-0.38,2.12-0.77,3.62-1.17s3.05-0.59,4.66-0.59c0.24,0,0.62,0.07,1.15,0.22v2.3
	c-0.58-0.07-1.15-0.11-1.73-0.11c-0.79,0-1.52,0.05-2.2,0.14c-0.67,0.1-1.64,0.25-2.92,0.47v15.26h-2.59V35.57z"/>
<path d="M25.96,80.07c-0.86-0.24-1.81-0.62-2.84-1.15v-2.74c1.22,0.7,2.23,1.18,3.01,1.46c0.78,0.28,1.71,0.41,2.79,0.41
	c1.2,0,2.18-0.26,2.93-0.79c0.76-0.53,1.13-1.21,1.13-2.05c0-0.74-0.23-1.3-0.68-1.67c-0.46-0.37-1.18-0.75-2.16-1.13l-0.94-0.4
	c-1.37-0.38-2.43-0.73-3.19-1.04s-1.42-0.8-1.98-1.48c-0.56-0.67-0.85-1.58-0.85-2.74c0-1.15,0.3-2.11,0.9-2.88
	c0.6-0.77,1.38-1.34,2.34-1.71c0.96-0.37,1.97-0.56,3.02-0.56c0.96,0,1.77,0.11,2.43,0.32c0.66,0.22,1.57,0.58,2.72,1.08v2.59
	c-1.2-0.6-2.12-1.02-2.75-1.26c-0.64-0.24-1.39-0.36-2.25-0.36c-1.06,0-1.96,0.21-2.7,0.63c-0.74,0.42-1.12,1.01-1.12,1.78
	c0,0.62,0.19,1.13,0.56,1.53c0.37,0.4,0.84,0.71,1.4,0.94c0.56,0.23,1.33,0.47,2.29,0.74c1.2,0.38,2.15,0.73,2.86,1.04
	c0.71,0.31,1.33,0.81,1.87,1.49c0.54,0.68,0.81,1.6,0.81,2.75c0,1.22-0.31,2.25-0.94,3.08c-0.62,0.83-1.43,1.45-2.43,1.85
	c-1,0.41-2.03,0.61-3.11,0.61C27.87,80.43,26.83,80.31,25.96,80.07z"/>
<path d="M41.97,78.15c-1.62-1.36-2.43-3.77-2.43-7.25c0-3.46,0.81-5.87,2.43-7.24c1.62-1.37,3.62-2.05,5.99-2.05
	c1.8,0,3.58,0.34,5.33,1.01v2.48c-1.63-0.67-3.31-1.01-5.04-1.01c-2.14,0-3.69,0.54-4.66,1.62c-0.97,1.08-1.46,2.81-1.46,5.18
	c0,2.4,0.49,4.13,1.46,5.2c0.97,1.07,2.53,1.6,4.66,1.6c1.8,0,3.48-0.34,5.04-1.01v2.52c-1.68,0.65-3.46,0.97-5.33,0.97
	C45.58,80.18,43.58,79.5,41.97,78.15z"/>
<path d="M58.29,61.93h2.59v17.96h-2.59V61.93z"/>
<path d="M68.73,80.07c-0.87-0.24-1.81-0.62-2.84-1.15v-2.74c1.22,0.7,2.23,1.18,3.01,1.46c0.78,0.28,1.71,0.41,2.79,0.41
	c1.2,0,2.18-0.26,2.93-0.79c0.76-0.53,1.13-1.21,1.13-2.05c0-0.74-0.23-1.3-0.68-1.67c-0.46-0.37-1.18-0.75-2.16-1.13l-0.94-0.4
	c-1.37-0.38-2.43-0.73-3.19-1.04s-1.42-0.8-1.98-1.48c-0.56-0.67-0.85-1.58-0.85-2.74c0-1.15,0.3-2.11,0.9-2.88
	c0.6-0.77,1.38-1.34,2.34-1.71c0.96-0.37,1.97-0.56,3.02-0.56c0.96,0,1.77,0.11,2.43,0.32c0.66,0.22,1.57,0.58,2.72,1.08v2.59
	c-1.2-0.6-2.12-1.02-2.75-1.26c-0.64-0.24-1.38-0.36-2.25-0.36c-1.06,0-1.96,0.21-2.7,0.63c-0.74,0.42-1.12,1.01-1.12,1.78
	c0,0.62,0.19,1.13,0.56,1.53c0.37,0.4,0.84,0.71,1.4,0.94c0.56,0.23,1.33,0.47,2.29,0.74c1.2,0.38,2.15,0.73,2.86,1.04
	c0.71,0.31,1.33,0.81,1.87,1.49c0.54,0.68,0.81,1.6,0.81,2.75c0,1.22-0.31,2.25-0.94,3.08c-0.63,0.83-1.44,1.45-2.43,1.85
	c-1,0.41-2.03,0.61-3.11,0.61C70.64,80.43,69.59,80.31,68.73,80.07z"/>
<path d="M85.15,80.07c-0.86-0.24-1.81-0.62-2.84-1.15v-2.74c1.22,0.7,2.23,1.18,3.01,1.46c0.78,0.28,1.71,0.41,2.79,0.41
	c1.2,0,2.18-0.26,2.93-0.79c0.76-0.53,1.13-1.21,1.13-2.05c0-0.74-0.23-1.3-0.68-1.67s-1.18-0.75-2.16-1.13l-0.94-0.4
	c-1.37-0.38-2.43-0.73-3.19-1.04s-1.42-0.8-1.98-1.48c-0.56-0.67-0.85-1.58-0.85-2.74c0-1.15,0.3-2.11,0.9-2.88
	c0.6-0.77,1.38-1.34,2.34-1.71c0.96-0.37,1.97-0.56,3.02-0.56c0.96,0,1.77,0.11,2.43,0.32c0.66,0.22,1.57,0.58,2.72,1.08v2.59
	c-1.2-0.6-2.12-1.02-2.75-1.26c-0.64-0.24-1.39-0.36-2.25-0.36c-1.06,0-1.96,0.21-2.7,0.63c-0.74,0.42-1.12,1.01-1.12,1.78
	c0,0.62,0.19,1.13,0.56,1.53c0.37,0.4,0.84,0.71,1.4,0.94c0.56,0.23,1.33,0.47,2.29,0.74c1.2,0.38,2.15,0.73,2.86,1.04
	c0.71,0.31,1.33,0.81,1.87,1.49c0.54,0.68,0.81,1.6,0.81,2.75c0,1.22-0.31,2.25-0.94,3.08s-1.43,1.45-2.43,1.85
	c-1,0.41-2.03,0.61-3.11,0.61C87.05,80.43,86.01,80.31,85.15,80.07z"/>
<path d="M100.79,77.99c-1.38-1.63-2.07-3.97-2.07-7.02c0-3.1,0.7-5.43,2.11-7s3.44-2.36,6.1-2.36c2.81,0,4.9,0.83,6.26,2.5
	c1.37,1.67,2.05,3.95,2.05,6.86c0,2.98-0.72,5.3-2.16,6.97c-1.44,1.67-3.47,2.5-6.08,2.5C104.24,80.43,102.17,79.62,100.79,77.99z
	 M112.65,70.97c0-2.26-0.44-3.98-1.33-5.18c-0.89-1.2-2.34-1.8-4.36-1.8c-3.77,0-5.65,2.33-5.65,6.98c0,4.73,1.88,7.09,5.65,7.09
	C110.75,78.06,112.65,75.69,112.65,70.97z"/>
<path d="M120.1,63.37c0.91-0.38,2.12-0.77,3.62-1.17c1.5-0.4,3.05-0.59,4.66-0.59c0.24,0,0.62,0.07,1.15,0.22v2.3
	c-0.58-0.07-1.15-0.11-1.73-0.11c-0.79,0-1.52,0.05-2.2,0.14c-0.67,0.1-1.64,0.25-2.92,0.47v15.26h-2.59V63.37z"/>
<path d="M135.62,80.07c-0.86-0.24-1.81-0.62-2.84-1.15v-2.74c1.22,0.7,2.23,1.18,3.01,1.46c0.78,0.28,1.71,0.41,2.79,0.41
	c1.2,0,2.18-0.26,2.93-0.79c0.76-0.53,1.13-1.21,1.13-2.05c0-0.74-0.23-1.3-0.68-1.67c-0.46-0.37-1.18-0.75-2.16-1.13l-0.94-0.4
	c-1.37-0.38-2.43-0.73-3.19-1.04s-1.42-0.8-1.98-1.48c-0.56-0.67-0.85-1.58-0.85-2.74c0-1.15,0.3-2.11,0.9-2.88
	c0.6-0.77,1.38-1.34,2.34-1.71c0.96-0.37,1.97-0.56,3.02-0.56c0.96,0,1.77,0.11,2.43,0.32s1.57,0.58,2.72,1.08v2.59
	c-1.2-0.6-2.12-1.02-2.75-1.26s-1.39-0.36-2.25-0.36c-1.06,0-1.96,0.21-2.7,0.63c-0.74,0.42-1.12,1.01-1.12,1.78
	c0,0.62,0.19,1.13,0.56,1.53c0.37,0.4,0.84,0.71,1.4,0.94c0.56,0.23,1.33,0.47,2.29,0.74c1.2,0.38,2.15,0.73,2.86,1.04
	c0.71,0.31,1.33,0.81,1.87,1.49c0.54,0.68,0.81,1.6,0.81,2.75c0,1.22-0.31,2.25-0.94,3.08s-1.43,1.45-2.43,1.85
	c-1,0.41-2.03,0.61-3.11,0.61C137.53,80.43,136.48,80.31,135.62,80.07z"/>
<g>
	<g id="XMLID_2_">
		<g>
			<linearGradient id="SVGID_1_" gradientUnits="userSpaceOnUse" x1="19.44" y1="22.965" x2="47.35" y2="22.965">
				<stop  offset="5.618000e-03" style="stop-color:#98D0C5"/>
				<stop  offset="0.5" style="stop-color:#00ADA4"/>
				<stop  offset="1" style="stop-color:#00947B"/>
			</linearGradient>
			<polygon class="st0" points="47.35,15.46 47.35,38.44 19.44,20.21 34.63,7.49 			"/>
			<linearGradient id="SVGID_2_" gradientUnits="userSpaceOnUse" x1="17.72" y1="36.06" x2="47.35" y2="36.06">
				<stop  offset="0" style="stop-color:#BA81B7"/>
				<stop  offset="0.5" style="stop-color:#92338A"/>
				<stop  offset="1" style="stop-color:#772182"/>
			</linearGradient>
			<polygon class="st1" points="47.35,38.44 32.33,51.91 17.72,45.17 19.44,20.21 			"/>
			<linearGradient id="SVGID_3_" gradientUnits="userSpaceOnUse" x1="1" y1="10.605" x2="34.63" y2="10.605">
				<stop  offset="0" style="stop-color:#F3944C"/>
				<stop  offset="0.5" style="stop-color:#ED6D05"/>
				<stop  offset="1" style="stop-color:#D25917"/>
			</linearGradient>
			<polygon class="st2" points="24.28,1 34.63,7.49 19.44,20.21 1,17.84 			"/>
			<linearGradient id="SVGID_4_" gradientUnits="userSpaceOnUse" x1="1" y1="31.505" x2="19.44" y2="31.505">
				<stop  offset="0.0112" style="stop-color:#44AFCD"/>
				<stop  offset="0.5" style="stop-color:#008EB4"/>
				<stop  offset="0.9944" style="stop-color:#00747D"/>
			</linearGradient>
			<polygon class="st3" points="19.44,20.21 17.72,45.17 6.55,40.02 1,17.84 			"/>
		</g>
		<g>
			<line class="st4" x1="24.28" y1="1" x2="1" y2="17.84"/>
			<line class="st4" x1="1" y1="17.84" x2="6.55" y2="40.02"/>
			<polyline class="st4" points="6.55,40.02 17.72,45.17 32.33,51.91 			"/>
			<line class="st4" x1="32.33" y1="51.91" x2="47.35" y2="38.44"/>
			<line class="st4" x1="47.35" y1="38.44" x2="47.35" y2="15.46"/>
			<polyline class="st4" points="47.35,15.46 34.63,7.49 24.28,1 			"/>
			<line class="st4" x1="1" y1="17.84" x2="19.44" y2="20.21"/>
			<line class="st4" x1="19.44" y1="20.21" x2="34.63" y2="7.49"/>
			<line class="st4" x1="19.44" y1="20.21" x2="47.35" y2="38.44"/>
			<line class="st4" x1="17.72" y1="45.17" x2="19.44" y2="20.21"/>
		</g>
	</g>
</g>
</svg>
